<svg xmlns="http://www.w3.org/2000/svg" version="1.1" xmlns:xlink="http://www.w3.org/1999/xlink"  width="1440" height="560" preserveAspectRatio="none" viewBox="0 0 1440 560">
    <g mask="url(&quot;#SvgjsMask1011&quot;)" fill="none">
        <rect width="1440" height="560" x="0" y="0" fill="rgba(234, 226, 183, 1)"></rect>
        <path d="M133.11 0C138.65 0.36 136.19 9.13 140 9.13C144.41 9.13 143.11 0.42 149.55 0C213.11 -4.15 214.77 0 280 0C332.18 0 336.19 -10.7 384.36 0C406.19 4.85 403.78 13.94 420 31.11C469.91 83.94 486.74 76.92 516.62 140C545.69 201.36 520.72 212.71 537.89 280C542.41 297.71 549.75 310 560 310C569.55 310 574.15 296.8 577.5 280C591.08 211.8 589.61 210.24 593.85 140C598.06 70.24 564.14 39.9 594.39 0C617.21 -30.1 647.19 0 700 0C744.92 0 759.8 -23.27 789.85 0C829.8 30.93 818.29 108.39 840 108.39C860.68 108.39 838.29 28.14 874.64 0C908.29 -26.06 927.32 0 980 0C1050 0 1050 0 1120 0C1190 0 1190 0 1260 0C1330 0 1330 0 1400 0C1470 0 1505 -35 1540 0C1575 35 1540 70 1540 140C1540 210 1540 210 1540 280C1540 339.87 1548.69 343.64 1540 399.74C1537.85 413.64 1520.58 405.99 1518.31 420C1507.61 486.12 1546.67 521.42 1514.07 560C1487.52 591.42 1457.03 560 1400 560C1330 560 1330 560 1260 560C1207.05 560 1199.01 575.51 1154.1 560C1129.01 551.33 1145.28 513.41 1120 511.64C1058.23 507.32 1048.53 526.65 980 547.83C970.29 550.83 973.48 559.13 963.53 560C903.48 565.22 901.76 560 840 560C770 560 770 560 700 560C630 560 630 560 560 560C521.43 560 498.9 584.79 482.86 560C453.61 514.79 491.18 481.7 469.41 420C459.75 392.61 444.19 401.55 420 381.82C358.39 331.55 358.96 330.85 297.82 280C288.96 272.63 288.66 265.37 280 265.37C271.97 265.37 272.79 273.35 264.44 280C202.79 329.06 207.17 337.17 140 376.79C88.5 407.17 27.1 396.64 27.1 420C27.1 443.98 80.82 463.41 140 471.47C207.27 480.63 221.49 432.36 280 454.43C338.84 476.62 374.71 528.35 374.71 560C374.71 581.14 327.36 560 280 560C210 560 210 560 140 560C73.11 560 61.52 573.83 6.22 560C-8.48 556.33 0.79 542.7 0 525C-2.32 472.7 0 472.5 0 420C0 350 0 350 0 280C0 210 0 210 0 140C0 70 -34.12 35.88 0 0C32.44 -34.12 68.65 -4.2 133.11 0" stroke="rgba(247, 127, 0, 1)" stroke-width="2"></path>
        <path d="M980 118.84C933.84 125.09 889 126.94 889 140C889 153.48 932.93 163.96 980 171.93C1048.43 183.52 1054.42 190.02 1120 179.12C1150.5 174.05 1172.16 158.21 1172.16 140C1172.16 123.01 1149.05 111.91 1120 108.71C1052.97 101.33 1049.34 109.45 980 118.84" stroke="rgba(0, 48, 73, 1)" stroke-width="2"></path>
        <path d="M75.74 0C116.68 24.92 104.42 85.22 140 85.22C181.1 85.22 179.55 30.16 229.09 0C249.55 -12.45 254.55 0 280 0C300.37 0 304.2 -10.23 320.73 0C374.2 33.1 372.44 41.25 420 86.67C445.73 111.25 457.8 107.43 467.32 140C486.05 204.09 491.93 218.39 476.49 280C468.27 312.78 448.46 328.79 420 328.79C390.94 328.79 390.83 304.27 361.45 280C320.83 246.44 319.6 213.13 280 213.13C243.32 213.13 245.85 248.2 208.89 280C175.85 308.43 179.13 331.08 140 333.58C74.69 337.75 64.13 317.87 0 293.33C-5.87 291.08 0 286.66 0 280C0 210 0 210 0 140C0 70 -24.57 45.43 0 0C13.3 -24.57 46.68 -17.69 75.74 0" stroke="rgba(247, 127, 0, 1)" stroke-width="2"></path>
        <path d="M632.31 140C639.78 69.55 629.98 53.38 655.79 0C663.83 -16.62 677.89 0 700 0C718.81 0 727.81 -13.81 737.61 0C777.48 56.19 763.01 73.44 799.35 140C814.21 167.21 813.07 173.64 840 187.55C903.4 220.3 908.23 222.3 980 233.33C1048.23 243.82 1057.26 253.04 1120 230.59C1187.65 206.38 1240.78 182.18 1240.78 140C1240.78 100.65 1185.3 83.02 1120 67.53C1054.91 52.09 1040.01 97.5 980 78.14C935.37 63.74 910.72 23.49 910.72 0C910.72 -15.58 945.36 0 980 0C1050 0 1050 0 1120 0C1190 0 1190 0 1260 0C1330 0 1330 0 1400 0C1470 0 1505 -35 1540 0C1575 35 1540 70 1540 140C1540 210 1540 210 1540 280C1540 316.84 1555.31 323.49 1540 353.68C1519.81 393.49 1496.95 381.03 1469.01 420C1426.95 478.67 1436.25 485.79 1400 548.95C1396.07 555.79 1396.32 559.39 1388.65 560C1326.32 564.92 1324.32 560 1260 560C1229.49 560 1220.54 577.25 1198.97 560C1150.54 521.25 1173.77 469.67 1120 448C1064.28 425.54 1045.61 480.21 980 471.74C937.22 466.21 941.94 445.37 903.23 420C871.94 399.5 874.11 380 840 380C781.25 380 717.5 388.08 717.5 420C717.5 459.66 783.38 467.76 840 523.16C854.92 537.76 860.59 547.62 860.59 560C860.59 566.04 850.3 560 840 560C770 560 770 560 700 560C630 560 630 560 560 560C557.14 560 554.72 562.73 554.29 560C543.74 492.73 535.75 486.93 538.04 420C538.6 403.59 550.82 407.92 560 393.33C594.86 337.92 608.63 341.25 626.11 280C644.78 214.58 624.94 209.55 632.31 140" stroke="rgba(0, 48, 73, 1)" stroke-width="2"></path>
        <path d="M84 560C84 549.9 108.3 530.74 140 522.94C206.3 506.64 217.29 499.12 280 511.8C308.91 517.65 323.24 545.55 323.24 560C323.24 569.65 301.62 560 280 560C210 560 210 560 140 560C112 560 84 568.43 84 560" stroke="rgba(0, 48, 73, 1)" stroke-width="2"></path>
        <path d="M18.36 0C47.09 62.25 70.82 82.93 64.62 140C61.64 167.41 22.93 168.97 0 168.97C-9.38 168.97 0 154.49 0 140C0 70 -8.12 61.88 0 0C1.06 -8.12 14.78 -7.75 18.36 0" stroke="rgba(247, 127, 0, 1)" stroke-width="2"></path>
        <path d="M197.65 140C197.65 113.27 235.03 66.32 280 66.32C339.84 66.32 407.27 114.81 407.27 140C407.27 162.1 343.19 160.9 280 160.9C238.38 160.9 197.65 160.56 197.65 140" stroke="rgba(0, 48, 73, 1)" stroke-width="2"></path>
        <path d="M670.77 140C676.23 87.69 682.34 37.69 700 37.69C718.41 37.69 713.07 94.01 742.9 140C783.07 201.95 782.73 210.15 840 253.58C875.03 280.15 927.5 266.3 927.5 280C927.5 293.8 884.79 298.62 840 308.57C771.04 323.9 759.08 340.77 700 330.56C676.44 326.49 678.92 307.4 674.72 280C664.31 212.12 663.59 208.85 670.77 140" stroke="rgba(247, 127, 0, 1)" stroke-width="2"></path>
        <path d="M980 37.44C957.25 33.98 946.8 11.25 946.8 0C946.8 -7.47 963.4 0 980 0C1050 0 1050 0 1120 0C1153.94 0 1187.88 -6.36 1187.88 0C1187.88 6.82 1155.49 19.96 1120 26.35C1051.55 38.68 1043.85 47.15 980 37.44" stroke="rgba(247, 127, 0, 1)" stroke-width="2"></path>
        <path d="M1374.55 140C1348.85 74.33 1327.91 48.74 1336.77 0C1340.63 -21.26 1368.39 0 1400 0C1470 0 1499.81 -29.81 1540 0C1569.81 22.12 1563.77 68.22 1540 103.87C1517.1 138.22 1492.92 120.95 1446.67 140C1422.92 149.78 1421.87 161.54 1400 161.54C1385.81 161.54 1380.46 155.1 1374.55 140" stroke="rgba(247, 127, 0, 1)" stroke-width="2"></path>
        <path d="M111.03 280C111.03 253.86 129.05 215.38 140 215.38C150.2 215.38 153.33 250.15 153.33 280C153.33 287.64 147.49 290.37 140 290.37C126.34 290.37 111.03 291.36 111.03 280" stroke="rgba(247, 127, 0, 1)" stroke-width="2"></path>
        <path d="M1483.24 280C1483.24 242.53 1524.65 188.7 1540 188.7C1553.03 188.7 1540 234.35 1540 280C1540 293.82 1548.64 307.63 1540 307.63C1520.26 307.63 1483.24 302 1483.24 280" stroke="rgba(247, 127, 0, 1)" stroke-width="2"></path>
        <path d="M1292.31 420C1292.31 399.64 1354.91 376.25 1400 376.25C1418.62 376.25 1419.72 398.46 1419.72 420C1419.72 438.76 1417.11 456.84 1400 456.84C1353.4 456.84 1292.31 439.94 1292.31 420" stroke="rgba(0, 48, 73, 1)" stroke-width="2"></path>
        <path d="M1243.85 560C1243.85 514.43 1247.69 455 1260 455C1272.79 455 1294.05 519.88 1294.05 560C1294.05 572.38 1277.03 560 1260 560C1251.93 560 1243.85 566.93 1243.85 560" stroke="rgba(247, 127, 0, 1)" stroke-width="2"></path>
    </g>
    <defs>
        <mask id="SvgjsMask1011">
            <rect width="1440" height="560" fill="#ffffff"></rect>
        </mask>
    </defs>
</svg>
